<svg width="104" height="30" viewBox="0 0 104 30" fill="none" xmlns="http://www.w3.org/2000/svg">
<g clip-path="url(#clip0_100_842)">
<path d="M52.1438 9.27585V10.5172C51.0957 9.55172 49.739 9 48.1975 9C44.5596 9 41.6 12.4483 41.6 17C41.6 19.069 42.2783 21 43.3264 22.3793C44.498 23.9655 46.4095 25 48.3826 25C49.739 25 51.0341 24.5172 52.1438 23.4827V24.7241H55.5968V9.27585H52.1438ZM51.9589 19.2069C51.2806 20.3103 50.0474 21.069 48.691 21.069C46.6562 21.069 45.1147 19.2759 45.1147 16.8621C45.1147 14.6552 46.4711 12.6552 48.5675 12.6552C49.9858 12.6552 51.1573 13.4138 51.8973 14.5862V19.2069H51.9589ZM70.642 21.4827C69.0388 23.8965 67.0657 24.931 64.5375 24.931C60.3447 24.931 57.3232 21.4138 57.3232 16.931C57.3232 12.4483 60.4679 8.93102 64.5991 8.93102C66.9422 8.93102 69.0388 10.1724 70.272 11.9655L67.7438 14.5172C67.0038 13.4138 65.9558 12.6552 64.661 12.6552C62.5643 12.6552 61.023 14.5172 61.023 16.8621C61.023 19.2759 62.5643 21.069 64.7226 21.069C66.2022 21.069 67.3738 20.0345 67.9289 19.069L70.642 21.4827ZM81.4325 24.5862C80.939 24.7931 79.891 24.931 79.2127 24.931C77.0546 24.931 75.4515 24.1034 74.5264 22.7241C73.8483 21.6896 73.54 20.3103 73.54 18.1724V12.7931H71.2585V9.34482H73.54V5H77.1779V9.27585H81.4941V12.7241H77.1779V18.5862C77.1779 19.5517 77.3011 20.1034 77.6095 20.5172C77.9795 21 78.5343 21.2758 79.4594 21.2758C80.0142 21.2758 80.6926 21.2069 80.939 21.1379L81.4325 24.5862ZM83.8989 9.27585H87.5368V24.5862H83.8989V9.27585ZM104 9.27585L97.8341 24.5862H95.3059L89.0783 9.27585H92.8395L96.5391 18.6552L100.239 9.27585H104Z" fill="#9F248F"/>
<path d="M36.4 12.3859C36.4 12.5104 36.258 12.6349 36.1161 12.6349C35.9744 12.6349 35.8324 12.5104 35.8324 12.3859C35.8324 12.2614 35.9744 12.1369 36.1161 12.1369C36.258 12.1369 36.4 12.2614 36.4 12.3859Z" fill="#F4764A"/>
<path d="M35.5488 7.03322C35.4068 7.03322 35.2648 7.15769 35.2648 7.28217C35.2648 7.40667 35.4068 7.53114 35.5488 7.53114C35.6905 7.53114 35.8324 7.40667 35.8324 7.28217C35.7614 7.09547 35.6197 7.03322 35.5488 7.03322Z" fill="#F68943"/>
<path d="M13.0555 3.73442C13.0555 3.60995 12.9136 3.48547 12.7717 3.48547C12.6297 3.48547 12.4878 3.60995 12.4878 3.73442C12.4878 3.8589 12.6297 3.9834 12.7717 3.9834C12.9136 3.9834 13.0555 3.8589 13.0555 3.73442Z" fill="#D22587"/>
<path d="M25.8988 5.29042C26.0406 5.29042 26.1825 5.16595 26.1825 5.04147C26.1825 4.91697 26.0406 4.7925 25.8988 4.7925C25.7569 4.85475 25.6859 4.97922 25.6859 5.1037C25.6859 5.22817 25.7569 5.29042 25.8988 5.29042Z" fill="#F68635"/>
<path d="M15.681 5.22822C15.681 5.10372 15.5391 4.97925 15.3972 4.97925C15.2552 4.97925 15.1133 5.10372 15.1133 5.22822C15.1133 5.3527 15.2552 5.47717 15.3972 5.47717C15.61 5.47717 15.681 5.3527 15.681 5.22822Z" fill="#DA2680"/>
<path d="M35.1226 8.96263C35.2643 8.96263 35.4063 8.83816 35.4063 8.71368C35.4063 8.58921 35.2643 8.46471 35.1226 8.46471C34.9807 8.46471 34.8387 8.58921 34.8387 8.71368C34.9097 8.90041 34.9807 8.96263 35.1226 8.96263Z" fill="#F58445"/>
<path d="M30.2266 10.7053C30.2266 11.8879 31.362 12.8838 32.7101 12.8838C34.0582 12.8838 35.1936 11.8879 35.1936 10.7053C35.1936 9.5228 34.0582 8.52695 32.7101 8.52695C31.362 8.52695 30.2266 9.46055 30.2266 10.7053Z" fill="#F58046"/>
<path d="M31.5045 7.46887C31.5045 7.96679 31.9301 8.34022 32.4977 8.34022C33.0655 8.34022 33.4911 7.96679 33.4911 7.46887C33.4911 6.97094 33.0655 6.59749 32.4977 6.59749C32.0011 6.53524 31.5045 6.90869 31.5045 7.46887Z" fill="#F68D43"/>
<path d="M31.2203 8.40248C31.2203 8.278 31.0786 8.1535 30.9366 8.1535C30.7947 8.1535 30.6527 8.278 30.6527 8.40248C30.6527 8.52695 30.7947 8.65143 30.9366 8.65143C31.1496 8.5892 31.2203 8.52695 31.2203 8.40248Z" fill="#F68D43"/>
<path d="M31.0781 5.72618C31.0781 5.97513 31.362 6.16185 31.5749 6.16185C31.8586 6.16185 32.0715 5.97513 32.0715 5.72618C32.0715 5.4772 31.8586 5.29048 31.5749 5.29048C31.291 5.22825 31.0071 5.4772 31.0781 5.72618Z" fill="#F79442"/>
<path d="M31.0786 4.48135C31.2205 4.48135 31.3625 4.35685 31.3625 4.23238C31.3625 4.1079 31.2205 3.98343 31.0786 3.98343C30.9366 3.98343 30.7949 4.1079 30.7949 4.23238C30.7949 4.35685 30.9366 4.48135 31.0786 4.48135Z" fill="#F89B41"/>
<path d="M30.1558 7.34438C30.1558 7.59336 30.3688 7.78008 30.6527 7.78008C30.9364 7.78008 31.1493 7.59336 31.1493 7.34438C31.1493 7.09543 30.9364 6.90871 30.6527 6.90871C30.3688 6.90871 30.1558 7.09543 30.1558 7.34438Z" fill="#F79243"/>
<path d="M26.2535 6.09961C26.2535 7.09546 27.1757 7.90458 28.3111 7.90458C29.4463 7.90458 30.3688 7.09546 30.3688 6.09961C30.3688 5.10376 29.4463 4.29463 28.3111 4.29463C27.1757 4.29463 26.2535 5.10376 26.2535 6.09961Z" fill="#F8963E"/>
<path d="M27.7436 3.4855C27.8855 3.4855 28.0275 3.36103 28.0275 3.23655C28.0275 3.11208 27.8855 2.98758 27.7436 2.98758C27.6016 2.98758 27.4599 3.11208 27.4599 3.23655C27.4599 3.36103 27.6016 3.4855 27.7436 3.4855Z" fill="#F68936"/>
<path d="M26.5374 4.54357C26.8211 4.54357 27.034 4.35685 27.034 4.1079C27.034 3.85892 26.8211 3.6722 26.5374 3.6722C26.2535 3.6722 26.0406 3.85892 26.0406 4.1079C26.0406 4.35685 26.2535 4.54357 26.5374 4.54357Z" fill="#F68635"/>
<path d="M23.5573 3.36099C23.5573 3.85892 23.983 4.23237 24.5506 4.23237C25.1183 4.23237 25.544 3.85892 25.544 3.36099C25.544 2.86307 25.1183 2.48962 24.5506 2.48962C23.983 2.48962 23.5573 2.86307 23.5573 3.36099Z" fill="#F37430"/>
<path d="M23.699 1.12033C23.8409 1.12033 23.9828 0.995851 23.9828 0.871369C23.9828 0.746889 23.8409 0.622406 23.699 0.622406C23.5571 0.622406 23.4152 0.746889 23.4152 0.871369C23.4152 1.05809 23.5571 1.12033 23.699 1.12033Z" fill="#F26634"/>
<path d="M23.6281 4.97922C23.77 4.97922 23.9119 4.85474 23.9119 4.73027C23.9119 4.60577 23.77 4.48129 23.6281 4.48129C23.4862 4.48129 23.3443 4.60577 23.3443 4.73027C23.2733 4.85474 23.4152 4.97922 23.6281 4.97922Z" fill="#F37230"/>
<path d="M31.7881 17.7386C31.6462 17.7386 31.5045 17.8631 31.5045 17.9876C31.5045 18.112 31.6462 18.2365 31.7881 18.2365C31.9301 18.2365 32.072 18.112 32.072 17.9876C32.0011 17.8008 31.9301 17.7386 31.7881 17.7386Z" fill="#F15C50"/>
<path d="M17.9515 4.91705C17.9515 6.16185 19.0868 7.1577 20.5059 7.1577C21.925 7.1577 23.0603 6.16185 23.0603 4.91705C23.0603 3.67223 21.925 2.67638 20.5059 2.67638C19.0868 2.67638 17.9515 3.67223 17.9515 4.91705Z" fill="#F15943"/>
<path d="M22.0673 2.61412C22.3511 2.61412 22.564 2.42741 22.564 2.17845C22.564 1.92949 22.3511 1.74277 22.0673 1.74277C21.7835 1.74277 21.5706 1.92949 21.5706 2.17845C21.5706 2.42741 21.7835 2.61412 22.0673 2.61412Z" fill="#F1603C"/>
<path d="M21.0029 1.12033C21.1448 1.12033 21.2867 0.995851 21.2867 0.871369C21.2867 0.746889 21.1448 0.622406 21.0029 0.622406C20.861 0.622406 20.719 0.746889 20.719 0.871369C20.719 1.05809 20.861 1.12033 21.0029 1.12033Z" fill="#F15645"/>
<path d="M18.4481 3.1743C18.59 3.1743 18.7319 3.04983 18.7319 2.92535C18.7319 2.80085 18.59 2.67638 18.4481 2.67638C18.3062 2.67638 18.1642 2.80085 18.1642 2.92535C18.2352 3.04983 18.3062 3.1743 18.4481 3.1743Z" fill="#EE4459"/>
<path d="M17.8806 6.47302C18.0225 6.47302 18.1644 6.34852 18.1644 6.22405C18.1644 6.09957 18.0225 5.9751 17.8806 5.9751C17.7386 5.9751 17.5967 6.09957 17.5967 6.22405C17.5967 6.41077 17.7386 6.47302 17.8806 6.47302Z" fill="#EA3E60"/>
<path d="M17.0295 4.23237C17.5971 4.23237 18.0229 3.85892 18.0229 3.36099C18.0229 2.86307 17.5971 2.48962 17.0295 2.48962C16.4619 2.48962 16.0361 2.86307 16.0361 3.36099C15.9652 3.85892 16.4619 4.23237 17.0295 4.23237Z" fill="#E4366A"/>
<path d="M15.4685 3.4855C15.6104 3.4855 15.7523 3.36103 15.7523 3.23655C15.7523 3.11208 15.6104 2.98758 15.4685 2.98758C15.3266 2.98758 15.1847 3.11208 15.1847 3.23655C15.2556 3.36103 15.3266 3.4855 15.4685 3.4855Z" fill="#DD2878"/>
<path d="M15.3972 4.54357C15.681 4.54357 15.8939 4.35685 15.8939 4.1079C15.8939 3.85892 15.681 3.6722 15.3972 3.6722C15.1134 3.6722 14.9005 3.85892 14.9005 4.1079C14.8296 4.35685 15.1134 4.54357 15.3972 4.54357Z" fill="#DB267F"/>
<path d="M18.2358 7.59335C18.5196 7.59335 18.8034 7.40663 18.8034 7.09543C18.8034 6.84645 18.5905 6.5975 18.2358 6.5975C17.9519 6.5975 17.6681 6.78423 17.6681 7.09543C17.6681 7.40663 17.9519 7.59335 18.2358 7.59335Z" fill="#EF4558"/>
<path d="M17.597 4.97922C17.597 4.73027 17.3841 4.48129 17.0294 4.48129C16.7456 4.48129 16.4617 4.66802 16.4617 4.97922C16.4617 5.22819 16.6746 5.47714 17.0294 5.47714C17.3841 5.47714 17.597 5.22819 17.597 4.97922Z" fill="#E53669"/>
<path d="M18.8738 7.71787C18.8738 7.9046 19.0867 8.09132 19.2995 8.09132C19.5124 8.09132 19.7253 7.9046 19.7253 7.71787C19.7253 7.53115 19.5124 7.34442 19.2995 7.34442C19.0157 7.34442 18.8738 7.53115 18.8738 7.71787Z" fill="#F0504B"/>
<path d="M13.7653 3.23652C14.3329 3.23652 14.7587 2.86307 14.7587 2.36516C14.7587 1.86723 14.3329 1.49379 13.7653 1.49379C13.1977 1.49379 12.7719 1.86723 12.7719 2.36516C12.7719 2.80085 13.1977 3.23652 13.7653 3.23652Z" fill="#D72683"/>
<path d="M12.3463 1.49379C12.6301 1.49379 12.843 1.30707 12.843 0.995866C12.843 0.746903 12.6301 0.560181 12.3463 0.560181C12.0625 0.560181 11.8497 0.746903 11.8497 0.995866C11.8497 1.30707 12.0625 1.49379 12.3463 1.49379Z" fill="#D32586"/>
<path d="M11.4946 0.497925C11.6365 0.497925 11.7784 0.373445 11.7784 0.248963C11.7784 0.124481 11.6365 0 11.4946 0C11.3527 0 11.2108 0.124481 11.2108 0.248963C11.2817 0.373445 11.3527 0.497925 11.4946 0.497925Z" fill="#D22587"/>
<path d="M10.7852 4.917C11.6366 4.917 12.3462 4.2946 12.3462 3.54772C12.3462 2.80082 11.6366 2.17842 10.7852 2.17842C9.93372 2.17842 9.22418 2.80082 9.22418 3.54772C9.22418 4.2946 9.93372 4.917 10.7852 4.917Z" fill="#CA2A90"/>
<path d="M9.65003 1.92949C9.79196 1.92949 9.93387 1.80501 9.93387 1.68053C9.93387 1.55605 9.79196 1.43156 9.65003 1.43156C9.50812 1.43156 9.36621 1.55605 9.36621 1.68053C9.43716 1.80501 9.50812 1.92949 9.65003 1.92949Z" fill="#CA2A90"/>
<path d="M8.79845 3.67218C8.94035 3.67218 9.08226 3.54771 9.08226 3.42323C9.08226 3.29876 8.94035 3.17426 8.79845 3.17426C8.65654 3.17426 8.5146 3.29876 8.5146 3.42323C8.5146 3.60996 8.65654 3.67218 8.79845 3.67218Z" fill="#C32F92"/>
<path d="M4.82481 5.7261C4.82481 6.97092 5.9601 7.90452 7.30823 7.90452C8.72734 7.90452 9.79167 6.90867 9.79167 5.7261C9.79167 4.4813 8.65638 3.5477 7.30823 3.5477C5.9601 3.5477 4.82481 4.54355 4.82481 5.7261Z" fill="#B43894"/>
<path d="M5.17972 3.79665C5.46354 3.79665 5.67643 3.60993 5.67643 3.36098C5.67643 3.112 5.46354 2.92528 5.17972 2.92528C4.89591 2.92528 4.61209 3.112 4.61209 3.36098C4.61209 3.60993 4.89591 3.79665 5.17972 3.79665Z" fill="#B43894"/>
<path d="M4.39915 7.46888C4.683 7.46888 4.89586 7.28215 4.89586 7.03318C4.89586 6.78423 4.683 6.5975 4.39915 6.5975C4.11534 6.5975 3.90248 6.78423 3.90248 7.03318C3.83152 7.2199 4.11534 7.46888 4.39915 7.46888Z" fill="#9E3D96"/>
<path d="M1.7032 7.59341C1.7032 8.09133 2.12893 8.46476 2.69657 8.46476C3.26422 8.46476 3.68995 8.09133 3.68995 7.59341C3.68995 7.09548 3.26422 6.72203 2.69657 6.72203C2.19989 6.72203 1.7032 7.09548 1.7032 7.59341Z" fill="#943C96"/>
<path d="M18.7323 28.0705C18.3066 28.0705 17.8809 28.3817 17.8809 28.8175C17.8809 29.1907 18.2356 29.5642 18.7323 29.5642C19.158 29.5642 19.5838 29.253 19.5838 28.8175C19.5838 28.3817 19.158 28.0705 18.7323 28.0705Z" fill="#8C377E"/>
<path d="M1.98646 6.03737C2.27028 6.03737 2.5541 5.85065 2.5541 5.6017C2.5541 5.35273 2.34124 5.166 2.05742 5.166C1.70264 5.166 1.48978 5.35273 1.48978 5.6017C1.48978 5.85065 1.70264 6.03737 1.98646 6.03737Z" fill="#9C3D97"/>
<path d="M2.19974 4.48135C2.34165 4.48135 2.48356 4.35685 2.48356 4.23238C2.48356 4.1079 2.34165 3.98343 2.19974 3.98343C2.05783 3.98343 1.91592 4.1079 1.91592 4.23238C1.91592 4.4191 2.05783 4.48135 2.19974 4.48135Z" fill="#A53B96"/>
<path d="M1.13543 9.27385C1.27734 9.27385 1.41925 9.14935 1.41925 9.02487C1.41925 8.9004 1.27734 8.77592 1.13543 8.77592C0.993519 8.77592 0.851608 8.9004 0.851608 9.02487C0.851608 9.14935 0.993519 9.27385 1.13543 9.27385Z" fill="#873E97"/>
<path d="M0.993372 12.8838C0.993372 12.6348 0.780507 12.4481 0.496686 12.4481C0.212865 12.4481 0 12.6348 0 12.8838C0 13.1328 0.212865 13.3195 0.496686 13.3195C0.780507 13.3817 0.993372 13.1328 0.993372 12.8838Z" fill="#6D4099"/>
<path d="M0.709425 19.0456C0.425604 19.0456 0.212738 19.2323 0.212738 19.4813C0.212738 19.7303 0.425604 19.917 0.709425 19.917C0.993244 19.917 1.20611 19.7303 1.20611 19.4813C1.27707 19.2323 0.993244 19.0456 0.709425 19.0456Z" fill="#404B9F"/>
<path d="M2.98 19.6058C2.41235 19.6058 1.98662 19.9793 1.98662 20.4772C1.98662 20.9751 2.41235 21.3486 2.98 21.3486C3.54763 21.3486 3.97335 20.9751 3.97335 20.4772C3.97335 20.0415 3.54763 19.6058 2.98 19.6058Z" fill="#354DA1"/>
<path d="M2.69656 22.8423C2.55466 22.8423 2.41275 22.9668 2.41275 23.0912C2.41275 23.2157 2.55466 23.3402 2.69656 23.3402C2.83849 23.3402 2.9804 23.2157 2.9804 23.0912C2.9804 22.9668 2.83849 22.8423 2.69656 22.8423Z" fill="#2551A3"/>
<path d="M5.10863 20.7884C4.541 20.7884 4.11525 21.1618 4.11525 21.6597C4.11525 22.1577 4.541 22.5311 5.10863 22.5311C5.67626 22.5311 6.10201 22.0954 6.10201 21.6597C6.17297 21.1618 5.67626 20.7884 5.10863 20.7884Z" fill="#2750A3"/>
<path d="M5.46356 22.9668C5.17972 22.9668 4.96686 23.1535 4.96686 23.4025C4.96686 23.6514 5.17972 23.8382 5.46356 23.8382C5.74738 23.8382 5.96024 23.6514 5.96024 23.4025C5.96024 23.1535 5.74738 22.9668 5.46356 22.9668Z" fill="#1A53A5"/>
<path d="M5.53436 19.668C5.53436 20.3527 6.17298 20.9128 6.95347 20.9128C7.73399 20.9128 8.37258 20.3527 8.37258 19.668C8.37258 18.9834 7.73399 18.4232 6.95347 18.4232C6.10202 18.4854 5.53436 18.9834 5.53436 19.668Z" fill="#324EA1"/>
<path d="M7.37906 8.40248C7.37906 8.278 7.23715 8.1535 7.09524 8.1535C6.95334 8.1535 6.8114 8.278 6.8114 8.40248C6.8114 8.52695 6.95334 8.65143 7.09524 8.65143C7.23715 8.65143 7.37906 8.52695 7.37906 8.40248Z" fill="#A33C96"/>
<path d="M14.2617 6.78423C14.2617 6.9087 14.4036 7.0332 14.5455 7.0332C14.6875 7.0332 14.8294 6.9087 14.8294 6.78423C14.8294 6.65975 14.6875 6.53528 14.5455 6.53528C14.3327 6.53528 14.2617 6.65975 14.2617 6.78423Z" fill="#D42486"/>
<path d="M16.2485 4.79257C16.2485 4.66807 16.1065 4.54359 15.9646 4.54359C15.8227 4.54359 15.6808 4.66807 15.6808 4.79257C15.6808 4.91704 15.8227 5.04152 15.9646 5.04152C16.1065 5.04152 16.2485 4.91704 16.2485 4.79257Z" fill="#DD2A77"/>
<path d="M16.5324 7.96682C16.5324 8.0913 16.6743 8.21577 16.8162 8.21577C16.9581 8.21577 17.1 8.0913 17.1 7.96682C17.1 7.84235 16.9581 7.71785 16.8162 7.71785C16.6034 7.7801 16.5324 7.84235 16.5324 7.96682Z" fill="#DF2D72"/>
<path d="M6.81144 18.2366C7.0243 18.2366 7.16621 18.1121 7.16621 17.9254C7.16621 17.7386 7.0243 17.6141 6.81144 17.6141C6.59857 17.6141 6.45667 17.7386 6.45667 17.9254C6.45667 18.1121 6.59857 18.2366 6.81144 18.2366Z" fill="#44499E"/>
<path d="M6.59911 8.9004C6.59911 8.1535 5.88954 7.5311 5.0381 7.5311C4.18662 7.5311 3.47708 8.1535 3.47708 8.9004C3.47708 9.64727 4.18662 10.2697 5.0381 10.2697C5.9605 10.2697 6.59911 9.64727 6.59911 8.9004Z" fill="#943C96"/>
<path d="M0.567505 14.3775C0.567505 14.8755 0.993237 15.2489 1.56088 15.2489C2.12852 15.2489 2.55425 14.8755 2.55425 14.3775C2.55425 13.8796 2.12852 13.5062 1.56088 13.5062C1.06419 13.5062 0.567505 13.8796 0.567505 14.3775Z" fill="#63429A"/>
<path d="M3.12228 14.3154C3.12228 14.5644 3.33517 14.7511 3.61899 14.7511C3.9028 14.7511 4.11567 14.5644 4.11567 14.3154C4.11567 14.0664 3.9028 13.8797 3.61899 13.8797C3.33517 13.8797 3.12228 14.0664 3.12228 14.3154Z" fill="#664199"/>
<path d="M5.74723 10.7054C5.74723 10.581 5.60532 10.4565 5.46341 10.4565C5.3215 10.4565 5.1796 10.581 5.1796 10.7054C5.1796 10.8299 5.3215 10.9544 5.46341 10.9544C5.67627 10.8922 5.74723 10.8299 5.74723 10.7054Z" fill="#873E97"/>
<path d="M4.82469 14.5021C5.10851 14.5021 5.32137 14.3154 5.32137 14.0664C5.32137 13.8175 5.10851 13.6307 4.82469 13.6307C4.54085 13.6307 4.32799 13.8175 4.32799 14.0664C4.32799 14.3154 4.54085 14.5021 4.82469 14.5021Z" fill="#6A4099"/>
<path d="M5.25067 15.0623C5.39258 15.0623 5.53452 14.9378 5.53452 14.8133C5.53452 14.6888 5.39258 14.5643 5.25067 14.5643C5.10877 14.5643 4.96686 14.6888 4.96686 14.8133C5.03781 14.9378 5.10877 15.0623 5.25067 15.0623Z" fill="#64429A"/>
<path d="M4.18663 19.9171C4.18663 20.166 4.39949 20.3527 4.68333 20.3527C4.96715 20.3527 5.18001 20.166 5.18001 19.9171C5.18001 19.6681 4.96715 19.4814 4.68333 19.4814C4.39949 19.4814 4.18663 19.6681 4.18663 19.9171Z" fill="#364CA0"/>
<path d="M3.83144 19.2946C5.25054 19.2946 6.38583 18.2988 6.38583 17.054C6.38583 15.8091 5.25054 14.8133 3.83144 14.8133C2.41234 14.8133 1.27705 15.8091 1.27705 17.054C1.27705 18.361 2.41234 19.2946 3.83144 19.2946Z" fill="#50469C"/>
<path d="M3.33477 9.33613C3.33477 9.08718 3.12188 8.90045 2.83806 8.90045C2.55425 8.90045 2.34138 9.08718 2.34138 9.33613C2.34138 9.5851 2.55425 9.7718 2.83806 9.7718C3.12188 9.7718 3.33477 9.5851 3.33477 9.33613Z" fill="#893E97"/>
<path d="M5.32176 11.9502C5.32176 10.9544 4.39936 10.1452 3.26407 10.1452C2.12879 10.1452 1.20638 10.9544 1.20638 11.9502C1.20638 12.9461 2.12879 13.7552 3.26407 13.7552C4.39936 13.7552 5.32176 12.9461 5.32176 11.9502Z" fill="#783F98"/>
<path d="M11.2822 23.0913C11.2822 21.9087 10.1469 20.9128 8.79871 20.9128C7.3796 20.9128 6.31529 21.9087 6.31529 23.0913C6.31529 24.2738 7.45058 25.2697 8.79871 25.2697C10.1469 25.2697 11.2822 24.2738 11.2822 23.0913Z" fill="#2351A3"/>
<path d="M9.08253 26.141C9.08253 25.8923 8.86967 25.7055 8.58585 25.7055C8.30203 25.7055 8.08917 25.8923 8.08917 26.141C8.08917 26.39 8.30203 26.5768 8.58585 26.5768C8.86967 26.5768 9.08253 26.39 9.08253 26.141Z" fill="#344CA0"/>
<path d="M9.43733 27.448C9.29542 27.448 9.15349 27.5725 9.15349 27.697C9.15349 27.8215 9.29542 27.946 9.43733 27.946C9.57924 27.946 9.72115 27.8215 9.72115 27.697C9.65019 27.5725 9.57924 27.448 9.43733 27.448Z" fill="#40499E"/>
<path d="M10.3597 25.1453C10.0759 25.1453 9.86305 25.332 9.86305 25.581C9.86305 25.83 10.0759 26.0165 10.3597 26.0165C10.6435 26.0165 10.8564 25.83 10.8564 25.581C10.8564 25.3943 10.6435 25.1453 10.3597 25.1453Z" fill="#3C4A9F"/>
<path d="M14.1201 24.9585C14.1201 24.2116 13.4105 23.5892 12.5591 23.5892C11.7076 23.5892 10.998 24.2116 10.998 24.9585C10.998 25.7055 11.7076 26.3278 12.5591 26.3278C13.4105 26.2655 14.1201 25.7055 14.1201 24.9585Z" fill="#4B469D"/>
<path d="M12.701 28.444C12.5591 28.444 12.4172 28.5685 12.4172 28.693C12.4172 28.8175 12.5591 28.9418 12.701 28.9418C12.8429 28.9418 12.9848 28.8175 12.9848 28.693C12.9848 28.5685 12.8429 28.444 12.701 28.444Z" fill="#5E4197"/>
<path d="M13.4107 26.3278C13.1268 26.3278 12.914 26.5145 12.914 26.7635C12.914 27.0125 13.1268 27.1993 13.4107 27.1993C13.6945 27.1993 13.9073 27.0125 13.9073 26.7635C13.9073 26.5145 13.6945 26.3278 13.4107 26.3278Z" fill="#5C429A"/>
<path d="M14.5457 27.946C14.2619 27.946 14.049 28.1327 14.049 28.3817C14.049 28.6307 14.2619 28.8175 14.5457 28.8175C14.8295 28.8175 15.0423 28.6307 15.0423 28.3817C15.1133 28.1327 14.8295 27.946 14.5457 27.946Z" fill="#6C3E8F"/>
<path d="M13.4107 3.98343C12.5592 3.98343 11.8497 4.60583 11.8497 5.3527C11.8497 6.0996 12.5592 6.722 13.4107 6.722C14.2621 6.722 14.9717 6.0996 14.9717 5.3527C14.9717 4.60583 14.2621 3.98343 13.4107 3.98343Z" fill="#D22587"/>
<path d="M15.7521 25.2697C14.9006 25.2697 14.191 25.892 14.191 26.639C14.191 27.3857 14.9006 28.0082 15.7521 28.0082C16.6035 28.0082 17.3131 27.3857 17.3131 26.639C17.2421 25.892 16.6035 25.2697 15.7521 25.2697Z" fill="#723C8D"/>
<path d="M16.8876 28.3817C16.7457 28.3817 16.6038 28.5062 16.6038 28.6307C16.6038 28.7552 16.7457 28.8797 16.8876 28.8797C17.0295 28.8797 17.1714 28.7552 17.1714 28.6307C17.1714 28.5062 17.0295 28.3817 16.8876 28.3817Z" fill="#7E3985"/>
<path d="M17.6678 27.946C17.5259 27.946 17.384 28.0705 17.384 28.195C17.384 28.3195 17.5259 28.444 17.6678 28.444C17.8097 28.444 17.9516 28.3195 17.9516 28.195C17.8807 28.0082 17.8097 27.946 17.6678 27.946Z" fill="#843983"/>
<path d="M17.9514 26.8257C17.6675 26.8257 17.4547 27.0125 17.4547 27.2615C17.4547 27.5102 17.6675 27.697 17.9514 27.697C18.2352 27.697 18.4481 27.5102 18.4481 27.2615C18.4481 27.0747 18.2352 26.8257 17.9514 26.8257Z" fill="#843882"/>
<path d="M18.0934 25.7678C17.8096 25.7678 17.5967 25.9543 17.5967 26.2033C17.5967 26.4523 17.8096 26.639 18.0934 26.639C18.3772 26.639 18.5901 26.4523 18.5901 26.2033C18.5901 25.9543 18.3772 25.7678 18.0934 25.7678Z" fill="#873881"/>
<path d="M18.7322 8.52697C18.7322 8.15352 18.3774 7.78008 17.8807 7.78008C17.455 7.78008 17.0293 8.09127 17.0293 8.52697C17.0293 8.9004 17.384 9.27385 17.8807 9.27385C18.3774 9.27385 18.7322 8.9004 18.7322 8.52697Z" fill="#EE435A"/>
<path d="M17.4551 6.59753C17.4551 6.03735 16.8875 5.53943 16.2489 5.53943C15.6103 5.53943 15.0426 6.03735 15.0426 6.59753C15.0426 7.1577 15.6103 7.65563 16.2489 7.65563C16.8875 7.65563 17.4551 7.1577 17.4551 6.59753Z" fill="#DD2977"/>
<path d="M10.8563 5.35268C10.4305 5.35268 10.0758 5.66388 10.0758 6.03733C10.0758 6.41078 10.4305 6.72198 10.8563 6.72198C11.282 6.72198 11.6368 6.41078 11.6368 6.03733C11.7077 5.66388 11.3529 5.35268 10.8563 5.35268Z" fill="#C32F92"/>
<path d="M21.3572 24.6473C21.3572 24.7717 21.4991 24.8962 21.6411 24.8962C21.783 24.8962 21.9249 24.7717 21.9249 24.6473C21.9249 24.5228 21.783 24.3983 21.6411 24.3983C21.4991 24.3361 21.3572 24.4605 21.3572 24.6473Z" fill="#B0326E"/>
<path d="M20.8608 25.0208C19.7255 25.0208 18.8031 25.8298 18.8031 26.8258C18.8031 27.8215 19.7255 28.6308 20.8608 28.6308C21.9961 28.6308 22.9185 27.8215 22.9185 26.8258C22.9185 25.8298 21.9961 25.0208 20.8608 25.0208Z" fill="#A03474"/>
<path d="M23.7699 26.2655C23.486 26.2655 23.2731 26.4523 23.2731 26.7013C23.2731 26.9503 23.486 27.137 23.7699 27.137C24.0537 27.137 24.2665 26.9503 24.2665 26.7013C24.2665 26.4523 24.0537 26.2655 23.7699 26.2655Z" fill="#BE3069"/>
<path d="M25.5436 26.39C24.9759 26.39 24.5502 26.7635 24.5502 27.2615C24.5502 27.7592 24.9759 28.1327 25.5436 28.1327C26.1113 28.1327 26.5369 27.7592 26.5369 27.2615C26.5369 26.8257 26.1113 26.39 25.5436 26.39Z" fill="#C93166"/>
<path d="M24.9054 28.8798C24.7635 28.8798 24.6216 29.0043 24.6216 29.1288C24.6216 29.253 24.7635 29.3775 24.9054 29.3775C25.0473 29.3775 25.1892 29.253 25.1892 29.1288C25.1892 29.0043 25.0473 28.8798 24.9054 28.8798Z" fill="#BC316A"/>
<path d="M19.9385 29.502C19.7966 29.502 19.6547 29.6265 19.6547 29.751C19.6547 29.8755 19.7966 30 19.9385 30C20.0804 30 20.2224 29.8755 20.2224 29.751C20.2224 29.6265 20.0804 29.502 19.9385 29.502Z" fill="#94357B"/>
<path d="M26.1825 24.3983C25.8988 24.3983 25.6859 24.585 25.6859 24.834C25.6859 25.083 25.8988 25.2697 26.1825 25.2697C26.4664 25.2697 26.6794 25.083 26.6794 24.834C26.6794 24.6473 26.4664 24.3983 26.1825 24.3983Z" fill="#DF315F"/>
<path d="M25.4022 26.0165C25.5441 26.0165 25.6861 25.892 25.6861 25.7677C25.6861 25.6432 25.5441 25.5187 25.4022 25.5187C25.2603 25.5187 25.1184 25.6432 25.1184 25.7677C25.1184 25.892 25.2603 26.0165 25.4022 26.0165Z" fill="#D13063"/>
<path d="M22.7763 6.4108C22.7763 6.53528 22.9182 6.65977 23.0602 6.65977C23.2021 6.65977 23.344 6.53528 23.344 6.4108C23.344 6.28633 23.2021 6.16185 23.0602 6.16185C22.9182 6.22407 22.7763 6.28633 22.7763 6.4108Z" fill="#F4752F"/>
<path d="M24.4083 22.8424C24.4083 22.7179 24.2664 22.5934 24.1245 22.5934C23.9825 22.5934 23.8406 22.7179 23.8406 22.8424C23.8406 22.9668 23.9825 23.0913 24.1245 23.0913C24.3373 23.0913 24.4083 22.9668 24.4083 22.8424Z" fill="#DD3160"/>
<path d="M23.7698 23.278C22.9184 23.278 22.2088 23.9004 22.2088 24.6473C22.2088 25.3942 22.9184 26.0165 23.7698 26.0165C24.6213 26.0165 25.3309 25.3942 25.3309 24.6473C25.3309 23.8382 24.6213 23.278 23.7698 23.278Z" fill="#C83166"/>
<path d="M25.8983 6.97098C26.0403 6.97098 26.1823 6.8465 26.1823 6.722C26.1823 6.59753 26.0403 6.47305 25.8983 6.47305C25.7564 6.47305 25.6145 6.59753 25.6145 6.722C25.6145 6.90873 25.7564 6.97098 25.8983 6.97098Z" fill="#F7913B"/>
<path d="M26.324 20.7884C26.324 21.0373 26.5369 21.224 26.8208 21.224C27.1045 21.224 27.3174 21.0373 27.3174 20.7884C27.3174 20.5394 27.1045 20.3527 26.8208 20.3527C26.5369 20.3527 26.324 20.5394 26.324 20.7884Z" fill="#EF4157"/>
<path d="M26.2532 21.3486C25.4018 21.3486 24.6922 21.971 24.6922 22.7179C24.6922 23.4647 25.4018 24.0871 26.2532 24.0871C27.1047 24.0871 27.8143 23.4647 27.8143 22.7179C27.7433 21.971 27.1047 21.3486 26.2532 21.3486Z" fill="#EE355B"/>
<path d="M28.666 22.5311C28.3821 22.5311 28.1694 22.7178 28.1694 22.9668C28.1694 23.2157 28.3821 23.4024 28.666 23.4024C28.95 23.4024 29.1626 23.2157 29.1626 22.9668C29.1626 22.7178 28.95 22.5311 28.666 22.5311Z" fill="#EF3D59"/>
<path d="M29.8724 25.083C29.5885 25.083 29.3758 25.2698 29.3758 25.5188C29.3758 25.7678 29.5885 25.9545 29.8724 25.9545C30.1561 25.9545 30.369 25.7678 30.369 25.5188C30.44 25.2698 30.1561 25.083 29.8724 25.083Z" fill="#EE375A"/>
<path d="M30.4398 23.9626C30.2978 23.9626 30.1558 24.0871 30.1558 24.2116C30.1558 24.3361 30.2978 24.4606 30.4398 24.4606C30.5817 24.4606 30.7237 24.3361 30.7237 24.2116C30.6527 24.0871 30.5817 23.9626 30.4398 23.9626Z" fill="#EF3C58"/>
<path d="M11.9912 23.3402C12.1331 23.3402 12.275 23.2157 12.275 23.0912C12.275 22.9668 12.1331 22.8423 11.9912 22.8423C11.8493 22.8423 11.7073 22.9668 11.7073 23.0912C11.6364 23.278 11.7783 23.3402 11.9912 23.3402Z" fill="#384CA0"/>
<path d="M30.0141 17.9254C28.5951 17.9254 27.4599 18.9212 27.4599 20.166C27.4599 21.4108 28.5951 22.4067 30.0141 22.4067C31.4332 22.4067 32.5686 21.4108 32.5686 20.166C32.6396 18.9212 31.4332 17.9254 30.0141 17.9254Z" fill="#F04C53"/>
<path d="M32.7813 17.9876C32.4974 17.9876 32.2847 18.1743 32.2847 18.4233C32.2847 18.6722 32.4974 18.8589 32.7813 18.8589C33.065 18.8589 33.2779 18.6722 33.2779 18.4233C33.2779 18.2365 33.065 17.9876 32.7813 17.9876Z" fill="#F15A50"/>
<path d="M31.2203 12.9461C31.2203 12.8216 31.0786 12.6971 30.9366 12.6971C30.7947 12.6971 30.6527 12.8216 30.6527 12.9461C30.6527 13.0706 30.7947 13.195 30.9366 13.195C31.0786 13.195 31.2203 13.0706 31.2203 12.9461Z" fill="#F47848"/>
<path d="M30.44 17.3029C30.8656 17.3029 31.2913 16.9917 31.2913 16.556C31.2913 16.1826 30.9366 15.8091 30.44 15.8091C30.0141 15.8091 29.5885 16.1203 29.5885 16.556C29.6595 16.9917 30.0141 17.3029 30.44 17.3029Z" fill="#F1634D"/>
<path d="M29.8722 9.52286C29.7305 9.52286 29.5885 9.64733 29.5885 9.77183C29.5885 9.89631 29.7305 10.0208 29.8722 10.0208C30.0141 10.0208 30.1561 9.89631 30.1561 9.77183C30.1561 9.64733 30.0141 9.52286 29.8722 9.52286Z" fill="#F68A42"/>
<path d="M29.0209 17.4896C29.0209 17.6141 29.1629 17.7386 29.3049 17.7386C29.4466 17.7386 29.5885 17.6141 29.5885 17.4896C29.5885 17.3651 29.4466 17.2406 29.3049 17.2406C29.1629 17.2406 29.0209 17.3651 29.0209 17.4896Z" fill="#F15D4F"/>
<path d="M33.5621 14.5021C33.5621 13.7552 32.8526 13.1328 32.0011 13.1328C31.1496 13.1328 30.44 13.7552 30.44 14.5021C30.44 15.249 31.1496 15.8714 32.0011 15.8714C32.8526 15.8714 33.5621 15.249 33.5621 14.5021Z" fill="#F36E4B"/>
<path d="M33.136 15.9336C32.5684 15.9336 32.1425 16.307 32.1425 16.8049C32.1425 17.3029 32.5684 17.6763 33.136 17.6763C33.7035 17.6763 34.1294 17.3029 34.1294 16.8049C34.2001 16.3693 33.7035 15.9336 33.136 15.9336Z" fill="#F1614E"/>
<path d="M34.4846 17.8008C34.2007 17.8008 33.9877 17.9875 33.9877 18.2987C33.9877 18.5477 34.2007 18.7344 34.5556 18.7344C34.8392 18.7344 35.0522 18.5477 35.0522 18.2987C34.9812 17.9875 34.7682 17.8008 34.4846 17.8008Z" fill="#F15C4F"/>
<path d="M34.9097 19.1078C34.768 19.1078 34.626 19.2323 34.626 19.3568C34.626 19.4813 34.768 19.6058 34.9097 19.6058C35.0516 19.6058 35.1936 19.4813 35.1936 19.3568C35.1936 19.1701 35.0516 19.1078 34.9097 19.1078Z" fill="#F15851"/>
<path d="M35.2648 12.8216C34.9809 12.8216 34.768 13.0083 34.768 13.2573C34.768 13.5062 35.0519 13.6929 35.2648 13.6929C35.5485 13.6929 35.7614 13.5062 35.7614 13.2573C35.8324 13.0083 35.5485 12.8216 35.2648 12.8216Z" fill="#F3724A"/>
<path d="M30.2981 8.7137C30.2981 8.34025 30.0141 8.09128 29.5885 8.09128C29.2336 8.09128 28.879 8.4025 28.879 8.7137C28.879 9.08713 29.1626 9.3361 29.5885 9.3361C30.0141 9.3361 30.2981 9.08713 30.2981 8.7137Z" fill="#F78F43"/>
<path d="M28.3114 8.27803C28.3114 8.4025 28.4534 8.52698 28.5953 8.52698C28.737 8.52698 28.879 8.4025 28.879 8.27803C28.879 8.15355 28.737 8.02905 28.5953 8.02905C28.4534 8.02905 28.3114 8.15355 28.3114 8.27803Z" fill="#F79442"/>
<path d="M25.6147 5.7884C25.6147 5.29047 25.189 4.91702 24.6213 4.91702C24.0537 4.91702 23.6279 5.29047 23.6279 5.7884C23.6279 6.28632 24.0537 6.65977 24.6213 6.65977C25.118 6.722 25.6147 6.28632 25.6147 5.7884Z" fill="#F57F33"/>
<path d="M8.79871 20.0414C8.58585 20.0414 8.44394 20.1659 8.44394 20.3526C8.44394 20.5394 8.58585 20.6639 8.79871 20.6639C9.01157 20.6639 9.15348 20.5394 9.15348 20.3526C9.15348 20.1659 9.01157 20.0414 8.79871 20.0414Z" fill="#2650A3"/>
<path d="M11.9203 27.7592C11.5656 27.7592 11.2108 27.5102 11.2108 27.137C11.2108 26.8257 11.4946 26.5145 11.9203 26.5145C12.2751 26.5145 12.6299 26.7635 12.6299 27.137C12.5589 27.448 12.2751 27.7592 11.9203 27.7592Z" fill="#4D3F99"/>
</g>
<defs>
<clipPath id="clip0_100_842">
<rect width="104" height="30" fill="white"/>
</clipPath>
</defs>
</svg>
