<svg width="71" height="24" viewBox="0 0 71 24" fill="none" xmlns="http://www.w3.org/2000/svg">
<g clip-path="url(#clip0_100_840)">
<path d="M42.8215 13.1713C42.8215 12.8301 43.0864 9.54241 46.6015 9.54241C48.9318 9.54241 49.7732 10.902 50.2148 13.1713H42.8215ZM46.7266 6.01215C41.492 6.01215 38.2737 10.106 38.2737 15.0109C38.2737 19.2488 40.631 23.9491 46.7266 23.9491C52.258 23.9491 53.8304 20.2925 54.4706 18.2481H51.586C50.9212 18.2481 50.438 18.5185 49.9866 19.0922C49.7977 19.3146 48.8313 20.4543 46.8885 20.4543C42.9539 20.4543 42.8975 17.2373 42.8215 16.138H54.7601C55.0961 11.2002 52.5622 6.01215 46.7266 6.01215ZM57.5761 0.0584323V19.2412C57.6105 22.4734 58.1869 23.5954 62.0943 23.5954L62.0919 3.84142C62.06 0.6624 61.4613 0.0584323 57.5761 0.0584323ZM66.3477 0.0584323V19.2412C66.382 22.4734 66.9614 23.5954 70.8664 23.5954L70.861 3.84142C70.8321 0.6624 70.2358 0.0584323 66.3477 0.0584323ZM33.3015 16.9947C33.3015 16.9947 32.2664 16.9568 31.869 18.0788C31.3048 19.6759 30.2721 20.4543 28.5133 20.4543C25.7782 20.4543 24.7382 17.7705 24.7382 15.0135C24.7382 12.3955 25.8077 9.54241 28.6114 9.54241C30.3604 9.54241 31.2876 10.3486 31.685 11.3948C31.9008 11.9634 32.2222 12.4789 33.2255 12.4789H36.4217C36.1788 8.07673 32.5043 6.01215 28.6384 6.01215C22.9426 6.01215 20.1953 10.2677 20.1953 15.2156C20.1953 20.755 23.9263 23.9491 28.5427 23.9491C32.5803 23.9491 35.8796 21.8618 36.5124 16.9947H33.3015ZM0 23.5953H5.00406V16.0168L7.88136 13.0121C7.88136 13.0121 10.6606 17.2651 12.5273 20.1637C14.4014 23.0546 15.2992 23.5953 18.645 23.5953H21.071L11.2812 9.3529L20.2051 0.0584234H17.7595C15.3924 0.0584234 13.8593 0.14687 11.9778 2.19883C10.0866 4.24322 5.00406 9.8179 5.00406 9.8179V4.63491C4.99672 1.22087 4.43006 0.0508423 0 0.0508423V23.5953Z" fill="#652D86"/>
</g>
<defs>
<clipPath id="clip0_100_840">
<rect width="71" height="24" fill="white"/>
</clipPath>
</defs>
</svg>
