<svg width="41" height="26" viewBox="0 0 41 26" fill="none" xmlns="http://www.w3.org/2000/svg">
<g clip-path="url(#clip0_100_963)">
<path d="M26.3127 3.17365H15.4882V22.8258H26.3127V3.17365Z" fill="#FF5A00"/>
<path d="M16.2087 13C16.2087 9.00728 18.0662 5.46359 20.9165 3.17395C18.8188 1.50728 16.1727 0.5 13.2864 0.5C6.44905 0.5 0.916687 6.09061 0.916687 13C0.916687 19.9094 6.44905 25.5 13.2864 25.5C16.1727 25.5 18.8188 24.4927 20.9165 22.8261C18.0622 20.5688 16.2087 16.9927 16.2087 13Z" fill="#EB001B"/>
<path d="M40.9167 13C40.9167 19.9094 35.3843 25.5 28.5469 25.5C25.6607 25.5 23.0146 24.4927 20.9169 22.8261C23.8032 20.5324 25.6246 16.9927 25.6246 13C25.6246 9.00728 23.7672 5.46359 20.9169 3.17395C23.0106 1.50728 25.6567 0.5 28.5429 0.5C35.3843 0.5 40.9167 6.12702 40.9167 13Z" fill="#F79E1B"/>
</g>
<defs>
<clipPath id="clip0_100_963">
<rect width="40" height="25" fill="white" transform="translate(0.916687 0.5)"/>
</clipPath>
</defs>
</svg>
