<svg width="71" height="28" viewBox="0 0 71 28" fill="none" xmlns="http://www.w3.org/2000/svg">
<path d="M1 10.2692V14.024L11.1292 12.9098V8.8458L1 10.2692ZM4.2324 14.2524V27.119H7.9408V13.8734L4.2324 14.2524ZM12.4972 8.6536V27.119H16.4048V8.1042L12.4972 8.6536ZM17.1328 8.00179V12.2496L22.7754 11.6288V7.209L17.1328 8.00179ZM17.1328 15.4112V19.7364L20.8368 19.5344V15.0924L17.1328 15.4112ZM17.1328 22.854V27.119H22.7754V22.6838L17.1328 22.854ZM37.3678 5.1516V27.119H42.4904V4.4316L37.3678 5.1516ZM43.447 4.297V9.35L50.9122 8.5292V3.2476L43.447 4.297ZM43.447 13.1502V18.2968L48.34 18.0296V12.7312L43.447 13.1502ZM43.447 22.0586V27.119H50.9122V21.8332L43.447 22.0586ZM24.2684 6.9988V27.119H28.7196V6.373L24.2684 6.9988ZM29.5504 22.4794V27.1188H36.0116V22.2844L29.5504 22.4794ZM67.6488 2.9992C66.0298 1.46959 63.656 0.842195 61.0596 1.21519V6.8196C62.111 6.7612 62.963 7.1514 63.3426 7.937C63.942 9.1756 63.3236 11.034 61.8648 12.7558C59.6132 15.4128 53.6258 20.8512 53.6258 20.8512L62.221 20.5686C67.4728 15.4378 69.3588 12.3234 69.6972 8.4364C69.875 6.37999 69.1286 4.3986 67.6488 2.9992ZM70 27.119V21.2548L52.5664 21.78M52.5664 21.78L52.5682 27.1188H70M60.0574 1.34099C54.9928 2.4196 52.5058 6.1456 52.7928 12.2254L58.1928 11.7462C57.9468 8.3114 58.9974 7.4966 60.06 7.0486L60.0574 1.34099Z" fill="#141414"/>
</svg>
