<svg width="113" height="20" viewBox="0 0 113 20" fill="none" xmlns="http://www.w3.org/2000/svg">
<g clip-path="url(#clip0_100_831)">
<path d="M95.3099 0.0118713V16.3059V18.5032L96.841 19.9994H99.9145H113V17.8246L111.469 16.3277L99.9145 16.3059L99.9053 1.50942L98.3742 0.0118713H95.3099Z" fill="#E5097F"/>
<path d="M73.0653 0C73.0653 0.0282796 71.5539 1.49683 71.5539 1.49683V18.5016L71.5532 18.5062C71.5532 18.512 73.0653 19.9984 73.0653 19.9984H90.1329V17.6145L88.6026 16.1177L76.1678 16.1009V14.7212V11.752H83.6511V9.35973L82.1179 7.87207L76.1678 7.86113V5.28669V3.92629L88.6026 3.9095L90.1329 2.39792V0.0282803L73.0653 0Z" fill="#E5097F"/>
<path d="M46.662 17.865L45.1316 16.3689L33.4872 16.3542L33.495 1.50357L31.9691 0.0118713H31.3059H28.9576V16.3542V18.5032L30.4887 19.9993H33.5668H46.662V18.5663V17.865Z" fill="#E5097F"/>
<path d="M43.1638 0.0286713V2.20592L44.6952 3.70221L52.976 3.71624L52.9963 18.4872L54.5282 19.9993H56.0705L57.5951 18.4872L57.6055 3.70933L65.8476 3.70221L67.3787 2.20592V0.0286713H43.1638Z" fill="#E5097F"/>
<path d="M23.6554 18.4961L23.6562 0.00916126L17.7671 0.000762939L0 18.1249L1.91478 19.9973L3.38734 20.0005L19.1488 3.94577C19.1488 4.17096 19.1449 12.4173 19.1449 12.4173H13.8139C13.806 12.425 11.6096 14.5748 10.9622 15.2091L9.91863 16.2459H19.1449L19.1488 19.9973H22.1249L23.6554 18.4961Z" fill="#E5097F"/>
</g>
<defs>
<clipPath id="clip0_100_831">
<rect width="113" height="20" fill="white"/>
</clipPath>
</defs>
</svg>
