<svg width="71" height="24" viewBox="0 0 71 24" fill="none" xmlns="http://www.w3.org/2000/svg">
<g clip-path="url(#clip0_100_961)">
<path d="M46.1799 0.535416C41.1496 0.535416 36.6542 3.13984 36.6542 7.95172C36.6542 13.47 44.6269 13.8512 44.6269 16.6234C44.6269 17.7907 43.2877 18.8356 41.0004 18.8356C37.7543 18.8356 35.3282 17.3756 35.3282 17.3756L34.2901 22.2313C34.2901 22.2313 37.085 23.4646 40.7956 23.4646C46.2953 23.4646 50.623 20.7323 50.623 15.8381C50.623 10.007 42.6171 9.6372 42.6171 7.06409C42.6171 6.14969 43.7164 5.14779 45.9972 5.14779C48.5705 5.14779 50.67 6.20964 50.67 6.20964L51.686 1.51983C51.686 1.51983 49.4015 0.535416 46.1799 0.535416ZM0.157266 0.889364L0.0354614 1.59726C0.0354614 1.59726 2.15173 1.98414 4.05777 2.75588C6.51195 3.64084 6.68678 4.15602 7.1001 5.75614L11.6041 23.0996H17.6417L26.9431 0.889364H20.9193L14.9426 15.9902L12.5038 3.19002C12.2801 1.72505 11.1472 0.889364 9.76042 0.889364H0.157266ZM29.3654 0.889364L24.6399 23.0996H30.3841L35.0929 0.889364H29.3654ZM61.4026 0.889364C60.0175 0.889364 59.2836 1.63012 58.7451 2.92456L50.3295 23.0996H56.3533L57.5187 19.7371H64.8574L65.5661 23.0996H70.8812L66.2443 0.889364H61.4026ZM62.1861 6.88988L63.9716 15.2242H59.188L62.1861 6.88988Z" fill="#1434CB"/>
</g>
<defs>
<clipPath id="clip0_100_961">
<rect width="70.9167" height="23" fill="white" transform="translate(0 0.5)"/>
</clipPath>
</defs>
</svg>
